<svg xmlns="http://www.w3.org/2000/svg" viewBox="0 0 128 128" width="32" height="32" aria-label="TypeScript Book logo">
  <rect width="128" height="128" rx="20" fill="#3178c6"/>
  <path fill="#fff" d="M22.67 47h99.67v13.4H89.23v67.6H73.93V60.4H22.67zm105.57 48.67c-2.34 2.56-5.1 4.33-8.28 5.3c-3.18.97-6.98 1.46-11.4 1.46c-4.54 0-8.55-.88-12.02-2.63c-3.47-1.75-6.04-4.24-7.71-7.47c-1.67-3.23-2.5-6.88-2.5-10.97c0-5.09 1.34-9.37 4-12.85c2.67-3.47 6.23-6.02 10.68-7.64c2.22-.81 5.1-1.21 8.64-1.21c3.87 0 7.17.4 9.89 1.21c2.72.81 4.92 2.01 6.6 3.6l-6.94 9.48c-1.27-1.27-2.72-2.19-4.35-2.77c-1.63-.58-3.49-.87-5.58-.87c-3.47 0-6.15 1.1-8.02 3.29c-1.87 2.2-2.8 5.29-2.8 9.28c0 4.05 1 7.19 2.99 9.41c1.99 2.22 4.89 3.33 8.69 3.33c1.88 0 3.56-.24 5.04-.73c1.48-.49 2.74-1.2 3.78-2.14l-.27-6.4h-9.38v-9.12h23.28v24.43z"/>
</svg>
